<svg width="110" height="110" viewBox="0 0 110 110" fill="none" xmlns="http://www.w3.org/2000/svg">
<path d="M55 110C85.3757 110 110 85.3757 110 55C110 24.6243 85.3757 0 55 0C24.6243 0 0 24.6243 0 55C0 85.3757 24.6243 110 55 110Z" fill="#FB9FD6"/>
<path d="M37 79C37 79 40.778 68.61 34.564 61.599C34.225 61.216 34.228 60.639 34.574 60.262C36.719 57.917 40.528 57.967 46 68C47.429 70.619 50.409 70.479 53 69C57.928 66.187 65.04 57.225 72.5 59.408C72.839 59.507 73.101 59.778 73.188 60.12C73.275 60.462 73.175 60.825 72.925 61.075L47 87L37 79Z" fill="#FBC8C8"/>
<path d="M87 58C87 58.552 86.552 59 86 59H24C23.448 59 23 58.552 23 58V56C23 55.448 23.448 55 24 55H86C86.552 55 87 55.448 87 56V58Z" fill="white"/>
<path d="M55 27C56.042 27 57.034 27.046 58 27.115V24C58 23.448 57.552 23 57 23H53C52.448 23 52 23.448 52 24V27.115C52.966 27.046 53.958 27 55 27Z" fill="white"/>
<path d="M27 55C27 55 26 27 55 27C84 27 83 55 83 55H27Z" fill="white"/>
<path d="M37 79L27 87H47L37 79Z" fill="#3E3E3F"/>
<path d="M55 27C26 27 27 55 27 55H55V27Z" fill="white"/>
<path d="M37 79C37 79 40.778 68.61 34.564 61.599C34.225 61.216 34.228 60.639 34.574 60.262C36.719 57.917 40.528 57.967 46 68C47.429 70.619 50.409 70.479 53 69C57.928 66.187 65.04 57.225 72.5 59.408C72.839 59.507 73.101 59.778 73.188 60.12C73.275 60.462 73.175 60.825 72.925 61.075L47 87L37 79Z" fill="white"/>
<path d="M72.925 61.075C73.175 60.825 73.275 60.463 73.188 60.12C73.101 59.777 72.839 59.507 72.5 59.408C65.04 57.226 57.928 66.187 53 69C50.409 70.479 47.429 70.619 46 68C40.528 57.967 36.719 57.917 34.574 60.262C34.229 60.639 34.225 61.217 34.564 61.599C40.778 68.609 37 79 37 79L39.727 81.182L70.702 63.298L72.925 61.075Z" fill="white"/>
</svg>
